<svg width="430" height="430" viewBox="0 0 430 430" fill="none" xmlns="http://www.w3.org/2000/svg">
<path d="M74.7641 301.077L72.5616 299.805C70.7728 298.773 69.3229 296.261 69.3229 294.196V101.205C69.3229 99.1391 70.7728 96.6279 72.5616 95.595L161.57 44.2057C163.359 43.1729 166.259 43.1729 168.047 44.2057L170.252 45.4777C172.04 46.5105 173.49 49.0217 173.49 51.0874V244.078C173.49 246.144 172.04 248.655 170.252 249.688L81.2416 301.077C79.4528 302.11 76.5529 302.109 74.7641 301.077Z" fill="#37474F"/>
<path d="M82.3433 104.982L70.2715 98.0125C69.6858 99.0273 69.3229 100.172 69.3229 101.205V294.196C69.3229 296.261 70.7728 298.773 72.5616 299.805L74.7641 301.077C76.5529 302.11 79.4528 302.11 81.2416 301.077L82.3433 300.441V104.982Z" fill="#263238"/>
<path d="M78.0029 106.216V299.207C78.0029 301.273 79.4528 302.109 81.2416 301.077L170.252 249.687C172.04 248.654 173.49 246.143 173.49 244.077V51.0874C173.49 49.0217 172.04 48.1849 170.252 49.2178L81.2416 100.607C79.4528 101.639 78.0029 104.151 78.0029 106.216Z" fill="#22333C"/>
<path d="M85.1194 118.415L166.056 71.6905C167.589 70.8055 168.832 71.5228 168.832 73.2935V227.258C168.832 229.029 167.589 231.182 166.056 232.067L85.1202 278.791C83.5868 279.676 82.3441 278.959 82.3441 277.188L82.3433 123.223C82.3433 121.453 83.586 119.301 85.1194 118.415Z" fill="#FAFAFA"/>
<path d="M125.747 79.9232C126.945 79.2309 127.916 79.7925 127.916 81.1763C127.916 82.56 126.945 84.243 125.747 84.9353C124.548 85.6276 123.577 85.066 123.577 83.6823C123.576 82.2986 124.548 80.6155 125.747 79.9232Z" fill="#263238"/>
<path d="M119.48 90.7644C123.889 88.3263 131.755 83.6453 136.103 81.0885C136.841 80.6542 137.438 80.9535 137.438 81.7568C137.438 82.56 136.837 83.5584 136.096 83.9859L119.445 93.6033C118.703 94.0315 118.102 93.7271 118.102 92.9239C118.102 92.1198 118.731 91.1781 119.48 90.7644Z" fill="#263238"/>
<path d="M115.273 93.1948C115.946 92.806 116.491 93.1208 116.491 93.8982C116.491 94.6757 115.946 95.62 115.273 96.0087C114.599 96.3974 114.054 96.0826 114.054 95.3052C114.054 94.5286 114.599 93.5835 115.273 93.1948Z" fill="#263238"/>
<path d="M125.747 260.347C128.143 258.963 130.087 260.085 130.087 262.853C130.087 265.621 128.144 268.987 125.747 270.37C123.35 271.754 121.406 270.633 121.406 267.864C121.406 265.097 123.349 261.731 125.747 260.347Z" fill="#263238"/>
<path d="M216.293 291.363C215.308 290.794 214.51 289.351 214.51 288.139L214.509 185.465C214.509 184.253 215.361 182.779 216.41 182.173L348.121 106.129C349.171 105.523 350.821 105.493 351.806 106.061C352.79 106.63 353.589 108.074 353.589 109.285V211.959C353.589 213.172 352.738 214.645 351.689 215.251L219.976 291.295C218.926 291.901 217.277 291.931 216.293 291.363Z" fill="#22333C"/>
<path d="M353.568 108.973C353.431 107.993 352.64 107.632 351.685 108.191L219.976 184.232C219.451 184.533 218.978 185.049 218.634 185.651L215.065 183.595C215.401 183.002 215.882 182.477 216.407 182.176L348.125 106.127C349.174 105.525 350.816 105.49 351.805 106.058C352.708 106.582 353.457 107.838 353.568 108.973Z" fill="#37474F"/>
<path d="M219.529 291.491C219.486 291.517 219.443 291.534 219.391 291.543C219.305 291.586 219.219 291.611 219.125 291.629C219.073 291.646 219.03 291.654 218.978 291.663C218.892 291.689 218.798 291.706 218.703 291.715C218.626 291.723 218.557 291.732 218.48 291.74C218.144 291.783 217.809 291.775 217.491 291.732C217.043 291.68 216.631 291.551 216.295 291.362C215.306 290.794 214.506 289.35 214.506 288.137V185.462C214.506 184.86 214.721 184.189 215.065 183.595L218.634 185.651C218.29 186.244 218.075 186.924 218.075 187.526V290.201C218.075 290.846 218.316 291.285 218.703 291.465C218.793 291.508 218.897 291.536 219.007 291.548C219.116 291.559 219.233 291.556 219.357 291.534C219.417 291.525 219.469 291.508 219.529 291.491Z" fill="#263238"/>
<path d="M228.774 214.29V230.489C228.774 231.701 229.625 232.192 230.674 231.586L251.836 219.368C252.886 218.762 253.737 217.288 253.737 216.076L253.736 199.877C253.736 198.664 252.885 198.173 251.836 198.78C247.193 201.46 235.317 208.317 230.674 210.997C229.624 211.604 228.774 213.078 228.774 214.29Z" fill="#8C89FF"/>
<mask id="mask0_34_239" style="mask-type:luminance" maskUnits="userSpaceOnUse" x="228" y="198" width="26" height="34">
<path d="M228.774 214.29V230.489C228.774 231.701 229.625 232.192 230.674 231.586L251.836 219.368C252.886 218.762 253.737 217.288 253.737 216.076L253.736 199.877C253.736 198.664 252.885 198.173 251.836 198.78C247.193 201.46 235.317 208.317 230.674 210.997C229.624 211.604 228.774 213.078 228.774 214.29Z" fill="white"/>
</mask>
<g mask="url(#mask0_34_239)">
<path d="M257.07 201.372L224.983 219.913L225.412 220.657L257.5 202.116L257.07 201.372Z" fill="white"/>
</g>
<mask id="mask1_34_239" style="mask-type:luminance" maskUnits="userSpaceOnUse" x="228" y="198" width="26" height="34">
<path d="M228.774 214.29V230.489C228.774 231.701 229.625 232.192 230.674 231.586L251.836 219.368C252.886 218.762 253.737 217.288 253.737 216.076L253.736 199.877C253.736 198.664 252.885 198.173 251.836 198.78C247.193 201.46 235.317 208.317 230.674 210.997C229.624 211.604 228.774 213.078 228.774 214.29Z" fill="white"/>
</mask>
<g mask="url(#mask1_34_239)">
<path d="M236.336 214.11H235.476V222.362H236.336V214.11Z" fill="white"/>
</g>
<mask id="mask2_34_239" style="mask-type:luminance" maskUnits="userSpaceOnUse" x="228" y="198" width="26" height="34">
<path d="M228.774 214.29V230.489C228.774 231.701 229.625 232.192 230.674 231.586L251.836 219.368C252.886 218.762 253.737 217.288 253.737 216.076L253.736 199.877C253.736 198.664 252.885 198.173 251.836 198.78C247.193 201.46 235.317 208.317 230.674 210.997C229.624 211.604 228.774 213.078 228.774 214.29Z" fill="white"/>
</mask>
<g mask="url(#mask2_34_239)">
<path d="M247.035 207.967H246.175V216.207H247.035V207.967Z" fill="white"/>
</g>
<mask id="mask3_34_239" style="mask-type:luminance" maskUnits="userSpaceOnUse" x="228" y="198" width="26" height="34">
<path d="M228.774 214.29V230.489C228.774 231.701 229.625 232.192 230.674 231.586L251.836 219.368C252.886 218.762 253.737 217.288 253.737 216.076L253.736 199.877C253.736 198.664 252.885 198.173 251.836 198.78C247.193 201.46 235.317 208.317 230.674 210.997C229.624 211.604 228.774 213.078 228.774 214.29Z" fill="white"/>
</mask>
<g mask="url(#mask3_34_239)">
<path d="M257.07 209.642L224.983 228.184L225.413 228.927L257.5 210.386L257.07 209.642Z" fill="white"/>
</g>
<path d="M229.635 201.179C229.543 201.125 229.497 200.989 229.497 200.767V191.809C229.497 191.588 229.543 191.396 229.635 191.231C229.725 191.069 229.876 190.926 230.086 190.805L233.917 188.593C234.876 188.038 235.597 187.877 236.076 188.109C236.557 188.341 236.797 188.904 236.797 189.8C236.797 190.274 236.698 190.754 236.501 191.24C236.304 191.725 236.037 192.147 235.696 192.505C236.595 192.329 237.044 192.829 237.044 194.007C237.044 194.581 236.928 195.168 236.697 195.764C236.465 196.36 236.117 196.927 235.65 197.463C235.183 198 234.605 198.467 233.917 198.865L230.085 201.077C229.876 201.197 229.726 201.231 229.635 201.179ZM233.552 192.957C233.901 192.757 234.172 192.5 234.363 192.187C234.555 191.875 234.65 191.527 234.65 191.144C234.65 190.733 234.562 190.488 234.384 190.415C234.204 190.342 233.927 190.414 233.552 190.63L231.656 191.725V194.051L233.552 192.957ZM233.762 197.128C234.144 196.906 234.43 196.622 234.618 196.278C234.805 195.934 234.899 195.569 234.899 195.186C234.899 194.753 234.789 194.491 234.571 194.4C234.354 194.309 234.049 194.378 233.657 194.603L231.655 195.759V198.343L233.762 197.128Z" fill="white"/>
<path d="M237.019 196.817C237.019 196.747 237.032 196.658 237.057 196.553L240.446 185.278C240.506 185.071 240.575 184.914 240.649 184.805C240.723 184.697 240.83 184.602 240.969 184.522L241.923 183.97C242.062 183.89 242.167 183.863 242.237 183.887C242.308 183.913 242.371 183.994 242.434 184.129L245.822 191.492C245.846 191.568 245.86 191.642 245.86 191.712C245.86 191.883 245.783 192.014 245.625 192.104L244.043 193.018C243.92 193.09 243.831 193.118 243.774 193.105C243.719 193.093 243.668 193.039 243.624 192.943L243.023 191.507L239.844 193.343L239.255 195.465C239.212 195.611 239.162 195.724 239.104 195.802C239.047 195.881 238.958 195.954 238.835 196.025L237.252 196.939C237.096 197.029 237.019 196.988 237.019 196.817ZM242.524 190.057L241.439 187.422L240.341 191.319L242.524 190.057Z" fill="white"/>
<path d="M247.085 191.104C246.993 191.05 246.947 190.914 246.947 190.692V181.719C246.947 181.498 246.993 181.307 247.085 181.15C247.175 180.99 247.33 180.848 247.548 180.722L248.359 180.254C248.507 180.168 248.618 180.127 248.692 180.13C248.768 180.131 248.849 180.173 248.936 180.254L252.597 184.106V178.471C252.597 178.25 252.645 178.058 252.735 177.894C252.827 177.73 252.977 177.589 253.187 177.468L254.168 176.901C254.386 176.776 254.538 176.74 254.625 176.796C254.711 176.851 254.755 176.994 254.755 177.226V186.184C254.755 186.406 254.711 186.594 254.625 186.75C254.537 186.906 254.386 187.047 254.168 187.172L253.343 187.649C253.204 187.729 253.096 187.768 253.022 187.766C252.948 187.763 252.868 187.721 252.781 187.64L249.106 183.811V189.446C249.106 189.668 249.062 189.856 248.975 190.012C248.887 190.168 248.735 190.309 248.517 190.435L247.536 191.001C247.327 191.122 247.176 191.156 247.085 191.104Z" fill="white"/>
<path d="M263.455 181.553C263.455 181.724 263.376 181.856 263.22 181.946L261.584 182.89C261.48 182.95 261.4 182.985 261.343 182.993C261.286 183 261.232 182.984 261.18 182.944L258.29 180.233L258.249 180.194V184.166C258.249 184.388 258.206 184.577 258.119 184.732C258.031 184.889 257.88 185.03 257.662 185.155L256.681 185.721C256.471 185.843 256.321 185.877 256.229 185.824C256.137 185.771 256.092 185.634 256.092 185.412V176.454C256.092 176.234 256.137 176.041 256.229 175.877C256.321 175.713 256.471 175.571 256.681 175.449L257.662 174.884C257.88 174.757 258.032 174.722 258.119 174.778C258.206 174.833 258.249 174.977 258.249 175.208V179.106L258.29 179.022L261.088 173.101C261.141 172.99 261.196 172.906 261.251 172.848C261.308 172.79 261.397 172.726 261.52 172.655L263.129 171.727C263.287 171.636 263.364 171.676 263.364 171.848C263.364 171.929 263.339 172.024 263.286 172.135L260.186 178.532L263.378 181.355C263.428 181.399 263.455 181.463 263.455 181.553Z" fill="white"/>
<path d="M270.252 176.732C269.418 176.291 269.002 175.204 269.002 173.472C269.002 171.731 269.41 170.166 270.225 168.779C271.039 167.392 272.207 166.26 273.723 165.385C274.36 165.017 274.938 164.757 275.457 164.603C275.977 164.449 276.414 164.406 276.772 164.472C276.858 164.491 276.903 164.546 276.903 164.637C276.903 164.718 276.876 164.818 276.824 164.939L276.365 166.125C276.305 166.272 276.244 166.362 276.182 166.397C276.13 166.427 276.057 166.44 275.96 166.435C275.403 166.395 274.744 166.594 273.985 167.031C273.086 167.55 272.39 168.252 271.892 169.139C271.395 170.024 271.146 171.057 271.146 172.235C271.146 173.423 271.407 174.165 271.923 174.459C272.443 174.755 273.151 174.642 274.05 174.122C274.87 173.649 275.559 173.071 276.116 172.385C276.211 172.269 276.287 172.196 276.339 172.166C276.4 172.131 276.461 172.151 276.523 172.226L277.032 172.944C277.067 172.995 277.086 173.045 277.086 173.096C277.086 173.156 277.032 173.262 276.928 173.412C276.247 174.368 275.196 175.258 273.775 176.079C272.259 176.954 271.082 177.173 270.252 176.732Z" fill="white"/>
<path d="M277.556 173.412C277.556 173.343 277.57 173.254 277.595 173.148L280.984 161.873C281.043 161.667 281.112 161.51 281.186 161.401C281.26 161.293 281.367 161.198 281.506 161.118L282.46 160.565C282.601 160.485 282.703 160.458 282.774 160.483C282.845 160.508 282.91 160.589 282.97 160.725L286.358 168.088C286.385 168.164 286.397 168.237 286.397 168.307C286.397 168.478 286.32 168.61 286.162 168.7L284.58 169.614C284.457 169.685 284.368 169.713 284.311 169.701C284.256 169.688 284.205 169.635 284.161 169.539L283.56 168.103L280.381 169.939L279.792 172.061C279.749 172.207 279.699 172.319 279.641 172.398C279.584 172.476 279.495 172.55 279.372 172.621L277.789 173.535C277.634 173.625 277.556 173.583 277.556 173.412ZM283.064 166.653L281.977 164.017L280.879 167.914L283.064 166.653Z" fill="white"/>
<path d="M287.623 167.699C287.531 167.646 287.485 167.509 287.485 167.287V158.329C287.485 158.109 287.531 157.917 287.623 157.752C287.713 157.589 287.864 157.446 288.074 157.325L291.383 155.415C293.597 154.136 294.706 154.614 294.706 156.849C294.706 157.565 294.575 158.247 294.313 158.897C294.052 159.546 293.662 160.15 293.149 160.709L294.523 163.39C294.548 163.445 294.562 163.509 294.562 163.578C294.562 163.759 294.47 163.904 294.287 164.01L292.835 164.848C292.712 164.919 292.622 164.954 292.56 164.954C292.5 164.954 292.447 164.905 292.403 164.81L291.201 162.182L289.644 163.081V166.04C289.644 166.262 289.6 166.45 289.513 166.606C289.425 166.763 289.273 166.904 289.055 167.029L288.075 167.595C287.864 167.717 287.713 167.752 287.623 167.699ZM291.07 160.46C291.567 160.172 291.94 159.836 292.188 159.452C292.437 159.067 292.56 158.612 292.56 158.089C292.56 157.566 292.447 157.248 292.22 157.137C291.993 157.027 291.653 157.102 291.201 157.365L289.644 158.263V161.284L291.07 160.46Z" fill="white"/>
<path d="M295.915 162.912C295.823 162.858 295.777 162.722 295.777 162.5V153.542C295.777 153.321 295.823 153.128 295.915 152.965C296.005 152.801 296.156 152.659 296.366 152.538L299.112 150.952C300.604 150.092 301.738 149.85 302.514 150.227C303.289 150.605 303.677 151.68 303.677 153.452C303.677 155.204 303.286 156.725 302.5 158.014C301.716 159.304 300.586 160.373 299.112 161.224L296.366 162.81C296.157 162.93 296.006 162.964 295.915 162.912ZM299.217 159.336C299.993 158.888 300.574 158.303 300.958 157.584C301.342 156.863 301.534 155.899 301.534 154.69C301.534 153.482 301.342 152.741 300.958 152.47C300.575 152.198 299.994 152.286 299.217 152.734L297.936 153.474V160.074L299.217 159.336Z" fill="white"/>
<path d="M228.774 245.176V249.022C228.774 250.233 229.625 250.725 230.674 250.119L251.836 237.901C252.886 237.295 253.737 235.821 253.737 234.609V230.763C253.737 229.55 252.886 229.059 251.836 229.666L230.674 241.884C229.625 242.49 228.774 243.964 228.774 245.176Z" fill="#EBEBEB"/>
<path d="M258.492 228.016V231.862C258.492 233.075 259.343 233.566 260.393 232.959L281.554 220.741C282.604 220.135 283.454 218.661 283.454 217.449V213.603C283.454 212.391 282.604 211.9 281.554 212.506L260.393 224.724C259.342 225.33 258.492 226.804 258.492 228.016Z" fill="#EBEBEB"/>
<path d="M288.209 210.857V214.702C288.209 215.915 289.061 216.406 290.11 215.8L311.272 203.582C312.322 202.975 313.172 201.501 313.172 200.29V196.444C313.172 195.231 312.321 194.74 311.272 195.346L290.11 207.564C289.06 208.171 288.209 209.645 288.209 210.857Z" fill="#EBEBEB"/>
<path d="M317.927 193.698V197.544C317.927 198.756 318.778 199.247 319.827 198.641L340.989 186.423C342.039 185.817 342.89 184.343 342.89 183.131V179.285C342.89 178.072 342.038 177.581 340.989 178.188L319.827 190.406C318.778 191.011 317.927 192.485 317.927 193.698Z" fill="#EBEBEB"/>
<path d="M331.052 198.341L326.201 201.142C325.571 201.506 325.06 202.39 325.06 203.117V204.602C325.06 205.329 325.571 205.623 326.201 205.26L331.052 202.459C331.681 202.096 332.192 201.212 332.192 200.484V199C332.192 198.272 331.681 197.977 331.052 198.341Z" fill="#8C89FF"/>
<path d="M341.749 192.164L336.898 194.965C336.269 195.328 335.758 196.212 335.758 196.94V198.424C335.758 199.152 336.269 199.447 336.898 199.083L341.749 196.282C342.379 195.918 342.89 195.034 342.89 194.307V192.822C342.891 192.095 342.38 191.8 341.749 192.164Z" fill="#8C89FF"/>
<path d="M280.504 237.816L340.893 202.951C341.943 202.344 342.793 202.836 342.793 204.048V205.835C342.793 207.048 341.942 208.521 340.893 209.127L280.504 243.993C279.454 244.6 278.603 244.108 278.603 242.896V241.108C278.603 239.896 279.454 238.422 280.504 237.816Z" fill="#8C89FF"/>
<path d="M152.486 94.6234V183.028C152.486 184.216 153.319 185.66 154.348 186.253L157.61 188.137C158.639 188.731 160.306 188.731 161.334 188.137L216.997 156C218.025 155.406 218.859 153.963 218.859 152.775V64.3703C218.859 63.1826 218.025 61.7387 216.997 61.1453L213.734 59.261C212.706 58.6676 211.039 58.6676 210.01 59.261L154.348 91.3984C153.319 91.9918 152.486 93.4357 152.486 94.6234Z" fill="#EBEBEB"/>
<path d="M218.847 64.0657C218.718 63.1025 217.935 62.7499 216.998 63.2917L161.339 95.4299C160.823 95.7223 160.358 96.2383 160.014 96.8231L153.031 92.7897C153.375 92.2049 153.839 91.6975 154.347 91.3965L210.015 59.2583C211.038 58.6649 212.706 58.6649 213.738 59.2583L216.998 61.1417C217.944 61.6835 218.726 62.9477 218.847 64.0657Z" fill="#F5F5F5"/>
<path d="M161.012 188.283C160.977 188.309 160.934 188.318 160.9 188.326C160.831 188.361 160.754 188.386 160.676 188.404C160.668 188.412 160.659 188.412 160.651 188.412C160.53 188.447 160.401 188.481 160.272 188.507C159.524 188.644 158.698 188.584 158.028 188.326C157.881 188.275 157.744 188.206 157.615 188.137L154.347 186.254C153.323 185.66 152.489 184.215 152.489 183.029V94.6215C152.489 94.0281 152.696 93.3745 153.031 92.7897L160.014 96.8231C159.679 97.4079 159.472 98.0615 159.472 98.6549V187.062C159.472 187.483 159.576 187.819 159.756 188.042C159.988 188.326 160.341 188.447 160.754 188.361C160.84 188.343 160.926 188.318 161.012 188.283Z" fill="#E0E0E0"/>
<path d="M197.556 129.705C199.991 131.328 203.118 131.399 206.279 130.83" stroke="#22333C" stroke-width="1.25" stroke-miterlimit="10" stroke-linecap="round"/>
<path d="M189.59 112.655C192.195 111.903 193.724 113.177 193.999 116.827C194.337 121.31 194.228 125.539 196.532 128.12" stroke="#22333C" stroke-width="1.25" stroke-miterlimit="10" stroke-linecap="round"/>
<path d="M185.346 136.702C183.403 131.957 182.406 117.304 187.967 113.451" stroke="#22333C" stroke-width="1.25" stroke-miterlimit="10" stroke-linecap="round"/>
<path d="M202.006 145.768C195.664 146.523 189.693 144.619 186.31 138.682" stroke="#22333C" stroke-width="1.25" stroke-miterlimit="10" stroke-linecap="round"/>
<path d="M203.261 142.303C193.061 143.412 185.791 138.229 186.993 120.854C187.107 119.219 188.012 117.344 189.226 116.644C189.24 116.635 189.255 116.626 189.271 116.619C190.504 115.938 191.762 116.733 191.738 118.392C191.559 130.813 195.578 136.586 205.773 134.779" stroke="#22333C" stroke-width="1.25" stroke-miterlimit="10" stroke-linecap="round"/>
<path d="M199.636 149.914C186.876 150.752 180.05 142.303 181.059 124.442C181.393 118.544 183.624 112.007 188.055 109.449C188.103 109.421 188.195 109.371 188.241 109.344C192.732 106.868 196.237 109.46 196.7 115.516C197.146 121.328 197.306 128.192 206.92 126.568" stroke="#22333C" stroke-width="1.25" stroke-miterlimit="10" stroke-linecap="round"/>
<path d="M190.876 153.15C192.754 153.802 194.816 154.236 196.912 154.24" stroke="#22333C" stroke-width="1.25" stroke-miterlimit="10" stroke-linecap="round"/>
<path d="M181.058 145.329C182.818 149.004 185.922 151.207 188.783 152.498" stroke="#22333C" stroke-width="1.25" stroke-miterlimit="10" stroke-linecap="round"/>
<path d="M181.817 112.431C176.32 122.582 177.715 136.204 180 142.776" stroke="#22333C" stroke-width="1.25" stroke-miterlimit="10" stroke-linecap="round"/>
<path d="M199.537 114.827C199.021 109.316 197.615 105.548 193.62 104.665C190.43 103.961 186.343 105.989 183.104 110.442" stroke="#22333C" stroke-width="1.25" stroke-miterlimit="10" stroke-linecap="round"/>
<path d="M207.317 122.744C204.032 123.897 200.546 123.19 199.933 118.2" stroke="#22333C" stroke-width="1.25" stroke-miterlimit="10" stroke-linecap="round"/>
<path d="M207.556 118.953C204.127 119.047 202.524 117.522 201.687 111.351C200.404 101.894 195.51 97.8439 187.917 102.228C179.958 106.823 175.178 118.2 174.81 127.604C174.119 145.312 179.676 152.356 188.402 155.927C191.675 157.099 193.398 157.387 194.471 157.485" stroke="#22333C" stroke-width="1.25" stroke-miterlimit="10" stroke-linecap="round"/>
<path d="M203.238 106.017C203.917 109.745 204.271 114.942 207.645 114.825" stroke="#22333C" stroke-width="1.25" stroke-miterlimit="10" stroke-linecap="round"/>
<path d="M195.789 96.5634C199.044 97.1671 201.489 99.8847 202.724 103.872" stroke="#22333C" stroke-width="1.25" stroke-miterlimit="10" stroke-linecap="round"/>
<path d="M183.105 102.084C186.563 98.5233 190.593 96.5866 193.999 96.443" stroke="#22333C" stroke-width="1.25" stroke-miterlimit="10" stroke-linecap="round"/>
<path d="M173.203 119.046C174.578 113.474 177.562 108.02 181.059 103.872" stroke="#22333C" stroke-width="1.25" stroke-miterlimit="10" stroke-linecap="round"/>
<path d="M171.934 136.735C171.377 132.141 171.444 126.951 172.44 121.573" stroke="#22333C" stroke-width="1.25" stroke-miterlimit="10" stroke-linecap="round"/>
<path d="M176.3 151.271C174.411 148.101 173.041 143.971 172.296 139.749" stroke="#22333C" stroke-width="1.25" stroke-miterlimit="10" stroke-linecap="round"/>
<path d="M189.4 161.28C185.355 159.626 180.849 157.22 177.987 153.365" stroke="#22333C" stroke-width="1.25" stroke-miterlimit="10" stroke-linecap="round"/>
<path d="M184.868 163.852C172.779 158.904 168.581 145.837 168.581 131.309C168.581 116.781 175.437 101.121 187.917 94.2844C196.369 89.6541 207.646 94.6714 207.646 109.199" stroke="#22333C" stroke-width="1.25" stroke-miterlimit="10" stroke-linecap="round"/>
<path d="M200.343 138.754C201.824 138.839 203.351 138.76 204.902 138.575" stroke="#22333C" stroke-width="1.25" stroke-miterlimit="10" stroke-linecap="round"/>
<path d="M192.053 134.13C193.228 136.543 195.678 138.071 198.158 138.56" stroke="#22333C" stroke-width="1.25" stroke-miterlimit="10" stroke-linecap="round"/>
<path d="M189.483 119.453C189.071 124.443 189.699 129.024 191.116 132.289" stroke="#22333C" stroke-width="1.25" stroke-miterlimit="10" stroke-linecap="round"/>
<path d="M193.231 87.9746C196.365 87.167 200.895 88.1087 203.238 89.8261" stroke="#22333C" stroke-width="1.25" stroke-miterlimit="10" stroke-linecap="round"/>
<path d="M177.988 97.174C181.574 93.0658 186.54 90.2088 190.366 88.7546" stroke="#22333C" stroke-width="1.25" stroke-miterlimit="10" stroke-linecap="round"/>
<path d="M173.777 161.542C175.103 163.154 176.647 164.415 178.381 165.268" stroke="#22333C" stroke-width="1.25" stroke-miterlimit="10" stroke-linecap="round"/>
<path d="M168.115 151.962C169.092 154.811 170.75 157.484 172.23 159.341" stroke="#22333C" stroke-width="1.25" stroke-miterlimit="10" stroke-linecap="round"/>
<path d="M33.0551 202.477C33.0551 201.425 33.7939 200.145 34.7046 199.619L119.111 150.887C120.022 150.361 121.499 150.361 122.411 150.887L124.27 151.96C125.182 152.487 125.921 153.765 125.921 154.818V219.517C125.921 220.564 125.178 221.851 124.27 222.375L39.8638 271.106C38.9565 271.63 37.4712 271.63 36.5639 271.106L34.7046 270.033C33.7973 269.509 33.0551 268.224 33.0551 267.175V202.477Z" fill="#8C89FF"/>
<path opacity="0.4" d="M33.5366 200.851L38.2201 203.552L125.437 153.192C125.14 152.677 124.727 152.224 124.274 151.959L122.409 150.89C121.503 150.359 120.021 150.359 119.115 150.89L34.7087 199.618C34.2469 199.884 33.8333 200.336 33.5366 200.851Z" fill="white"/>
<path opacity="0.1" d="M33.0524 202.475V267.173C33.0524 268.226 33.7937 269.507 34.707 270.03L36.5646 271.107C36.7048 271.185 36.8536 271.256 37.017 271.31C37.2277 271.381 37.4539 271.435 37.6964 271.466C38.1255 271.521 38.5787 271.505 39.0001 271.419C39.1094 271.395 39.2186 271.364 39.3201 271.333C39.3906 271.309 39.4525 271.285 39.5153 271.254C39.2108 271.364 38.9451 271.348 38.7267 271.239C38.4145 271.075 38.2193 270.7 38.2193 270.153V205.456C38.2193 204.776 38.5624 204.261 39.0775 204.05L38.2193 203.551L33.5357 200.85C33.2399 201.366 33.0524 201.952 33.0524 202.475Z" fill="black"/>
<path opacity="0.2" d="M38.2201 203.553L77.3088 218.156C80.0952 219.194 83.2256 218.164 84.8485 215.674L91.1256 206.058L125.748 153.014L92.3769 206.419L125.919 219.546C125.912 220.077 125.717 220.67 125.404 221.193L92.2832 206.569L84.9886 218.242C83.3108 220.919 79.9232 221.965 77.0354 220.685L71.8418 218.393L38.7267 271.24C38.4145 271.075 38.2193 270.701 38.2193 270.154V269.077L71.6793 218.32L38.2201 203.553Z" fill="black"/>
<path d="M336.451 24.0508C336.451 23.4797 336.255 23.0764 335.94 22.8734L335.944 22.8717L335.924 22.8597C335.911 22.8519 335.898 22.8442 335.884 22.8373L332.414 20.8301C332.414 20.8301 332.412 20.8292 332.411 20.8283L332.405 20.8249C332.069 20.6348 331.607 20.6641 331.096 20.9582L277.801 51.7023L276.363 46.9113C276.22 46.434 275.937 46.0883 275.586 45.8819L275.597 45.8776L272.094 43.8548L272.095 43.8669C271.609 43.5796 270.988 43.5659 270.391 43.9107L247.486 57.1298C246.457 57.7232 245.624 59.1671 245.624 60.3548L245.624 136.731C245.624 137.3 245.82 137.701 246.133 137.905L246.127 137.91L246.163 137.93C246.168 137.933 246.173 137.936 246.178 137.939L249.646 139.938C249.659 139.946 249.671 139.954 249.685 139.961L249.712 139.977V139.971C250.045 140.138 250.489 140.106 250.98 139.822L334.59 91.5496C335.618 90.9562 336.452 89.5122 336.452 88.3246L336.451 24.0508Z" fill="#8C89FF"/>
<path opacity="0.4" d="M275.547 45.8535C275.066 45.5869 274.464 45.5955 273.879 45.9309L250.977 59.1491C250.47 59.4501 250.005 59.9575 249.661 60.5423L246.17 58.5213C246.505 57.9365 246.97 57.4205 247.486 57.1281L270.387 43.9099C270.989 43.5659 271.609 43.5831 272.09 43.8669V43.8583L275.547 45.8535Z" fill="white"/>
<path opacity="0.4" d="M335.808 22.7969C335.481 22.6593 335.051 22.7109 334.586 22.9775L280.699 54.0665C279.667 54.6599 278.557 54.2213 278.213 53.0775L277.801 51.7015L331.095 20.9565C331.387 20.7845 331.671 20.7071 331.92 20.7071C332.101 20.7071 332.264 20.7501 332.402 20.8275H332.411L335.808 22.7969Z" fill="white"/>
<path opacity="0.1" d="M249.378 139.688C249.429 139.765 249.489 139.826 249.558 139.886L246.178 137.942C246.17 137.934 246.17 137.934 246.161 137.934L246.127 137.908C245.998 137.822 245.895 137.701 245.809 137.547C245.774 137.478 245.74 137.409 245.723 137.332C245.662 137.16 245.628 136.962 245.628 136.73L245.619 60.3531C245.619 60.2757 245.619 60.2069 245.628 60.1295C245.645 59.9747 245.671 59.8199 245.705 59.6651C245.723 59.5877 245.748 59.5103 245.766 59.4329C245.843 59.2007 245.938 58.9685 246.049 58.7449C246.084 58.6675 246.127 58.5901 246.17 58.5213L249.661 60.5423C249.326 61.1185 249.12 61.7807 249.12 62.3741V138.751C249.12 138.862 249.128 138.974 249.145 139.077C249.154 139.138 249.163 139.198 249.18 139.258C249.188 139.292 249.197 139.318 249.206 139.353C249.223 139.396 249.24 139.439 249.257 139.473C249.283 139.55 249.326 139.619 249.378 139.688Z" fill="black"/>
<path d="M193.221 264.659C193.221 263.189 192.19 261.403 190.917 260.668L189.041 259.585C187.769 258.851 185.705 258.851 184.432 259.585L122.166 295.514C120.893 296.249 119.861 298.036 119.861 299.505V306.839C119.861 308.308 120.893 310.095 122.166 310.83L124.042 311.913C125.315 312.648 127.378 312.648 128.651 311.913L190.917 275.984C192.19 275.25 193.221 273.463 193.221 271.993V264.659Z" fill="#37474F"/>
<path d="M119.862 306.839C119.862 308.308 120.894 310.095 122.166 310.83L124.042 311.913C125.192 312.576 126.982 312.634 128.257 312.098C127.173 312.509 126.347 311.896 126.347 310.582V303.249C126.347 302.514 126.605 301.7 127.022 300.978L120.538 297.234C120.121 297.956 119.862 298.77 119.862 299.505V306.839H119.862Z" fill="#263238"/>
<path d="M193.146 264.005C192.876 263.027 191.985 262.715 190.921 263.328L128.649 299.261C128.015 299.627 127.435 300.25 127.026 300.981L120.544 297.24C120.963 296.509 121.533 295.886 122.167 295.52L184.428 259.587C185.707 258.856 187.771 258.856 189.04 259.587L190.922 260.672C192.007 261.296 192.92 262.693 193.146 264.005Z" fill="#22333C"/>
<path d="M134.276 300.168C135.484 299.471 136.464 300.036 136.464 301.432C136.464 302.827 135.484 304.523 134.276 305.221C133.068 305.918 132.088 305.352 132.088 303.958C132.088 302.562 133.068 300.866 134.276 300.168Z" fill="#E6E6E6"/>
<path d="M141.512 295.99C142.72 295.292 143.7 295.858 143.7 297.253C143.7 298.648 142.72 300.345 141.512 301.042C140.304 301.74 139.324 301.175 139.324 299.779C139.324 298.384 140.304 296.688 141.512 295.99Z" fill="#E6E6E6"/>
<path d="M148.748 291.813C149.956 291.115 150.936 291.68 150.936 293.076C150.936 294.471 149.956 296.168 148.748 296.865C147.54 297.563 146.56 296.998 146.56 295.602C146.56 294.206 147.54 292.51 148.748 291.813Z" fill="#E6E6E6"/>
<path d="M155.984 287.635C157.193 286.937 158.172 287.502 158.172 288.898C158.172 290.293 157.193 291.99 155.984 292.687C154.776 293.385 153.796 292.819 153.796 291.424C153.797 290.028 154.777 288.332 155.984 287.635Z" fill="#E6E6E6"/>
<path d="M163.221 283.457C164.429 282.759 165.409 283.324 165.409 284.72C165.409 286.116 164.429 287.812 163.221 288.509C162.013 289.207 161.033 288.642 161.033 287.246C161.033 285.85 162.013 284.154 163.221 283.457Z" fill="#E6E6E6"/>
<path d="M170.457 279.279C171.665 278.582 172.645 279.147 172.645 280.542C172.645 281.937 171.665 283.634 170.457 284.331C169.249 285.029 168.269 284.464 168.269 283.068C168.269 281.672 169.249 279.976 170.457 279.279Z" fill="#E6E6E6"/>
<path d="M177.693 275.101C178.901 274.404 179.881 274.97 179.881 276.364C179.881 277.759 178.901 279.456 177.693 280.154C176.485 280.851 175.505 280.285 175.505 278.89C175.505 277.494 176.485 275.799 177.693 275.101Z" fill="#E6E6E6"/>
<path d="M184.929 270.923C186.138 270.226 187.117 270.792 187.117 272.187C187.117 273.582 186.138 275.278 184.929 275.976C183.721 276.673 182.741 276.108 182.741 274.712C182.742 273.317 183.721 271.621 184.929 270.923Z" fill="#E6E6E6"/>
<path d="M193.221 288.85C193.221 287.38 192.19 285.594 190.917 284.859L189.041 283.776C187.769 283.041 185.705 283.041 184.432 283.776L122.166 319.705C120.893 320.44 119.861 322.227 119.861 323.696V331.029C119.861 332.499 120.893 334.285 122.166 335.021L124.042 336.104C125.315 336.839 127.378 336.839 128.651 336.104L190.917 300.175C192.19 299.441 193.221 297.654 193.221 296.184V288.85Z" fill="#37474F"/>
<path d="M119.862 331.029C119.862 332.498 120.894 334.285 122.166 335.02L124.042 336.103C125.192 336.767 126.982 336.825 128.257 336.289C127.173 336.699 126.347 336.087 126.347 334.773V327.44C126.347 326.705 126.605 325.891 127.022 325.169L120.538 321.425C120.121 322.147 119.862 322.961 119.862 323.696V331.029H119.862Z" fill="#263238"/>
<path d="M193.146 288.195C192.876 287.218 191.985 286.905 190.921 287.519L128.649 323.452C128.015 323.817 127.435 324.441 127.026 325.172L120.544 321.431C120.963 320.7 121.533 320.076 122.167 319.711L184.428 283.778C185.707 283.047 187.771 283.047 189.04 283.778L190.922 284.863C192.007 285.486 192.92 286.884 193.146 288.195Z" fill="#22333C"/>
<path d="M134.276 324.358C135.484 323.661 136.464 324.226 136.464 325.622C136.464 327.017 135.484 328.713 134.276 329.411C133.068 330.108 132.088 329.543 132.088 328.148C132.088 326.753 133.068 325.056 134.276 324.358Z" fill="#E6E6E6"/>
<path d="M141.512 320.181C142.72 319.483 143.7 320.048 143.7 321.444C143.7 322.839 142.72 324.536 141.512 325.233C140.304 325.931 139.324 325.365 139.324 323.97C139.324 322.575 140.304 320.878 141.512 320.181Z" fill="#E6E6E6"/>
<path d="M148.748 316.003C149.956 315.305 150.936 315.87 150.936 317.266C150.936 318.661 149.956 320.358 148.748 321.055C147.54 321.753 146.56 321.188 146.56 319.792C146.56 318.397 147.54 316.7 148.748 316.003Z" fill="#E6E6E6"/>
<path d="M155.984 311.825C157.193 311.127 158.172 311.692 158.172 313.088C158.172 314.484 157.193 316.18 155.984 316.877C154.776 317.575 153.796 317.01 153.796 315.614C153.797 314.219 154.777 312.522 155.984 311.825Z" fill="#E6E6E6"/>
<path d="M163.221 307.647C164.429 306.949 165.409 307.514 165.409 308.91C165.409 310.305 164.429 312.002 163.221 312.699C162.013 313.397 161.033 312.831 161.033 311.436C161.033 310.041 162.013 308.344 163.221 307.647Z" fill="#E6E6E6"/>
<path d="M170.457 303.469C171.665 302.772 172.645 303.337 172.645 304.732C172.645 306.127 171.665 307.824 170.457 308.522C169.249 309.219 168.269 308.654 168.269 307.258C168.269 305.863 169.249 304.167 170.457 303.469Z" fill="#E6E6E6"/>
<path d="M177.693 299.291C178.901 298.594 179.881 299.159 179.881 300.555C179.881 301.949 178.901 303.646 177.693 304.344C176.485 305.041 175.505 304.476 175.505 303.08C175.505 301.685 176.485 299.989 177.693 299.291Z" fill="#E6E6E6"/>
<path d="M184.929 295.114C186.138 294.417 187.117 294.982 187.117 296.378C187.117 297.772 186.138 299.469 184.929 300.167C183.721 300.864 182.741 300.298 182.741 298.903C182.742 297.508 183.721 295.812 184.929 295.114Z" fill="#E6E6E6"/>
<path d="M117.807 308.16C117.807 306.69 116.776 304.904 115.503 304.168L113.627 303.086C112.354 302.35 110.291 302.35 109.018 303.086L80.2449 319.727C78.9721 320.462 77.9401 322.249 77.9401 323.719V355.271C77.9401 356.741 78.9721 358.527 80.2449 359.262L82.1214 360.346C83.3942 361.08 85.4573 361.08 86.7301 360.346L115.503 343.704C116.776 342.97 117.807 341.183 117.807 339.713V308.16Z" fill="#8C89FF"/>
<path opacity="0.2" d="M77.9409 355.27C77.9409 356.74 78.9729 358.526 80.2449 359.262L82.1214 360.344C83.2712 361.008 85.0617 361.066 86.3363 360.53C85.2518 360.94 84.4262 360.328 84.4262 359.014V327.461C84.4262 326.727 84.6842 325.912 85.1013 325.19L78.6169 321.447C78.1998 322.169 77.9418 322.982 77.9418 323.718L77.9409 355.27Z" fill="black"/>
<path opacity="0.3" d="M117.731 307.505C117.462 306.526 116.57 306.215 115.507 306.828L86.7284 323.474C86.0946 323.839 85.5141 324.463 85.1056 325.194L78.6238 321.453C79.0426 320.722 79.6128 320.098 80.2466 319.733L109.014 303.087C110.292 302.356 112.356 302.356 113.626 303.087L115.507 304.173C116.593 304.796 117.506 306.194 117.731 307.505Z" fill="white"/>
<path d="M100.689 320.493C103.458 318.894 105.703 320.19 105.703 323.387C105.703 326.584 103.458 330.472 100.689 332.071C97.9205 333.67 95.675 332.374 95.675 329.176C95.675 325.979 97.9196 322.091 100.689 320.493Z" fill="#FAFAFA"/>
<path d="M110.568 337.541C110.568 332.288 106.88 330.158 102.332 332.785L99.4882 334.427C94.9397 337.053 91.252 343.44 91.252 348.693V350.107C93.8819 350.98 107.907 342.81 110.569 338.759V337.541H110.568Z" fill="#FAFAFA"/>
<path d="M376.849 246.184C376.851 246.181 376.853 246.178 376.855 246.176L366.366 240.12C366.366 240.12 366.365 240.129 366.365 240.131C365.956 239.905 365.348 240.057 364.612 240.62C364.23 240.913 363.84 241.192 363.444 241.46C363.302 241.556 363.156 241.644 363.013 241.736C362.756 241.903 362.499 242.07 362.238 242.227C362.056 242.336 361.869 242.435 361.684 242.539C361.456 242.668 361.229 242.799 360.998 242.92C360.788 243.03 360.575 243.131 360.362 243.235C360.152 243.338 359.943 243.444 359.73 243.54C359.497 243.647 359.261 243.744 359.025 243.843C358.83 243.925 358.635 244.009 358.439 244.087C358.185 244.187 357.928 244.278 357.671 244.37C357.491 244.434 357.312 244.501 357.13 244.561C356.854 244.652 356.578 244.735 356.3 244.818C356.136 244.866 355.973 244.916 355.809 244.962C355.513 245.042 355.216 245.116 354.919 245.187C354.772 245.222 354.624 245.257 354.477 245.29C354.162 245.359 353.846 245.42 353.531 245.478C353.401 245.501 353.272 245.525 353.142 245.546C352.808 245.601 352.474 245.649 352.14 245.69C352.03 245.704 351.919 245.717 351.809 245.729C351.458 245.768 351.107 245.8 350.755 245.824C350.662 245.831 350.57 245.836 350.478 245.842C350.11 245.864 349.744 245.877 349.378 245.882C349.304 245.883 349.231 245.883 349.157 245.883C348.775 245.885 348.394 245.879 348.014 245.863C347.959 245.86 347.904 245.857 347.849 245.854C347.454 245.834 347.06 245.806 346.669 245.767C346.631 245.764 346.594 245.759 346.556 245.755C346.149 245.712 345.745 245.661 345.343 245.596C345.324 245.593 345.305 245.589 345.286 245.586C344.943 245.53 344.603 245.462 344.264 245.391C344.021 245.13 343.777 244.93 343.539 244.798L343.42 244.729L333.076 238.757V238.759C332.219 238.272 331.429 238.626 330.925 239.876C324.162 256.669 309.757 273.692 300.155 277.949C299.968 278.031 299.786 278.128 299.609 278.235C299.491 278.305 299.38 278.385 299.267 278.464C299.217 278.499 299.166 278.532 299.117 278.569C298.971 278.678 298.835 278.796 298.701 278.919C298.693 278.927 298.683 278.935 298.674 278.944C298.53 279.078 298.396 279.219 298.269 279.367L298.268 279.368C297.597 280.148 297.162 281.106 297.198 282.109L298.58 319.824C298.58 330.82 303.264 342.424 312.809 347.974L312.812 347.976L312.813 347.977L323.292 354.027L323.294 354.028L323.426 354.104L323.425 354.099C327.743 356.571 333.042 357.814 339.346 357.213C341.119 357.044 343.578 355.762 344.817 354.483C365.809 332.799 376.015 303.453 376.015 287.218L377.402 247.772C377.432 246.921 377.224 246.394 376.849 246.184Z" fill="#8C89FF"/>
<path opacity="0.15" d="M323.044 353.879L312.815 347.977H312.808C303.268 342.424 298.579 330.82 298.579 319.823L297.199 282.11C297.153 280.813 297.876 279.582 298.908 278.736C298.682 278.93 298.463 279.143 298.27 279.368L308.744 285.412C308.067 286.192 307.642 287.16 307.68 288.159L309.061 325.872C309.061 336.773 313.666 348.273 323.044 353.879Z" fill="black"/>
<path opacity="0.3" d="M376.837 246.164C376.431 245.951 375.824 246.119 375.096 246.673C365.672 253.884 351.573 253.891 344.4 245.538C344.355 245.486 344.316 245.441 344.271 245.396C350.992 246.815 358.712 245.138 364.614 240.623C365.35 240.055 365.956 239.907 366.369 240.133C366.369 240.126 366.369 240.12 366.369 240.12L376.837 246.164Z" fill="white"/>
<path opacity="0.5" d="M343.42 244.732L343.413 244.739C342.613 244.365 341.884 244.746 341.407 245.926C334.647 262.721 320.238 279.743 310.635 284C309.925 284.316 309.26 284.806 308.744 285.412L298.27 279.369C298.463 279.143 298.682 278.931 298.908 278.737C298.985 278.673 299.062 278.608 299.14 278.551C299.223 278.492 299.302 278.434 299.385 278.377C299.469 278.325 299.553 278.274 299.637 278.222C299.805 278.119 299.978 278.029 300.16 277.951C309.757 273.694 324.167 256.673 330.926 239.877C331.287 238.987 331.791 238.555 332.364 238.555C332.59 238.555 332.835 238.619 333.081 238.761L343.42 244.732Z" fill="white"/>
<path d="M394.838 282.386L389.244 279.158L367.321 330.815L371.061 332.974L394.838 282.386Z" fill="#22333C"/>
<path d="M361.627 317.075L356.032 313.846L350.024 326.564L355.619 329.794L361.627 317.075Z" fill="#22333C"/>
<path d="M372.501 348.121L355.619 329.794L361.627 317.075L371.061 332.974L394.838 282.386L403.65 290.986L372.501 348.121Z" fill="#37474F"/>
<path d="M350.024 326.564L355.619 329.794L372.501 348.121L366.91 344.926L350.024 326.564Z" fill="#263238"/>
</svg>
