<svg width="64" height="64" viewBox="0 0 64 64" fill="none" xmlns="http://www.w3.org/2000/svg">
<circle cx="32" cy="32" r="27" fill="#8C89FF" stroke="white" stroke-width="2"/>
<path d="M21.5 29L21.8654 30.6178L23.2678 29.7322L22.3822 31.1346L24 31.5L22.3822 31.8654L23.2678 33.2678L21.8654 32.3822L21.5 34L21.1346 32.3822L19.7322 33.2678L20.6178 31.8654L19 31.5L20.6178 31.1346L19.7322 29.7322L21.1346 30.6178L21.5 29Z" fill="white"/>
<path d="M35.5 29L35.8654 30.6178L37.2678 29.7322L36.3822 31.1346L38 31.5L36.3822 31.8654L37.2678 33.2678L35.8654 32.3822L35.5 34L35.1346 32.3822L33.7322 33.2678L34.6178 31.8654L33 31.5L34.6178 31.1346L33.7322 29.7322L35.1346 30.6178L35.5 29Z" fill="white"/>
<path d="M28.5 29L28.8654 30.6178L30.2678 29.7322L29.3822 31.1346L31 31.5L29.3822 31.8654L30.2678 33.2678L28.8654 32.3822L28.5 34L28.1346 32.3822L26.7322 33.2678L27.6178 31.8654L26 31.5L27.6178 31.1346L26.7322 29.7322L28.1346 30.6178L28.5 29Z" fill="white"/>
<path fill-rule="evenodd" clip-rule="evenodd" d="M19 26H45C46.1046 26 47 26.8954 47 28V29.5309C47.7512 29.6246 48.4378 29.9266 49 30.3773V28C49 25.7909 47.2091 24 45 24H19C16.7909 24 15 25.7909 15 28V35C15 37.2091 16.7909 39 19 39H39.5V37.7071C39.5 37.4582 39.5619 37.2156 39.6771 37H19C17.8954 37 17 36.1046 17 35V28C17 26.8954 17.8954 26 19 26ZM42.4142 37L41.5 37.9142V38.5C41.5 37.9477 41.9477 37.5 42.5 37.5C42.5 37.3179 42.5487 37.1471 42.6338 37H42.4142ZM46.9493 35.4493C47.8375 35.2454 48.5 34.4501 48.5 33.5C48.5 34.0523 48.0523 34.5 47.5 34.5C47.3179 34.5 47.1471 34.4513 47 34.3662V35C47 35.1545 46.9825 35.3049 46.9493 35.4493ZM44.3662 39H45C46.4898 39 47.7893 38.1856 48.4777 36.9777C47.8944 37.3101 47.2194 37.5 46.5 37.5C46.3143 37.5 46.1312 37.4873 45.9516 37.4626L45.2071 38.2071C45.0196 38.3946 44.7652 38.5 44.5 38.5C44.5 38.6821 44.4513 38.8529 44.3662 39Z" fill="white"/>
<path d="M46.5 32.5C47.0523 32.5 47.5 32.9477 47.5 33.5M49.5 33.5C49.5 35.1569 48.1569 36.5 46.5 36.5C46.1969 36.5 45.9043 36.4551 45.6285 36.3715L44.5 37.5H43.5V38.5H42.5V39.5H41C40.7239 39.5 40.5 39.2761 40.5 39V37.7071C40.5 37.5745 40.5527 37.4473 40.6464 37.3536L43.6285 34.3715C43.5449 34.0957 43.5 33.8031 43.5 33.5C43.5 31.8431 44.8431 30.5 46.5 30.5C48.1569 30.5 49.5 31.8431 49.5 33.5Z" stroke="white" stroke-linecap="round" stroke-linejoin="round"/>
</svg>
